<?xml version="1.0" encoding="utf-8"?>
<!-- Generator: Adobe Illustrator 21.1.0, SVG Export Plug-In . SVG Version: 6.00 Build 0)  -->
<svg version="1.1" id="Calque_1" xmlns="http://www.w3.org/2000/svg" xmlns:xlink="http://www.w3.org/1999/xlink" x="0px" y="0px"
	 viewBox="0 0 1920 1080" style="enable-background:new 0 0 1920 1080;" xml:space="preserve">
<style type="text/css">
	.st0{fill:#FFFFFF;}
</style>
<g>
	<polygon class="st0" points="1924.6,8.7 1905.7,24 1882.5,5.1 1859.2,24 1836,5.1 1812.8,24 1789.5,5.1 1766.3,24 1743,5.1 
		1719.8,24 1696.5,5.1 1673.3,24 1650,5.1 1626.8,24 1603.6,5.1 1580.3,24 1557.1,5.1 1533.8,24 1510.6,5.1 1487.3,24 1464.1,5.1 
		1440.9,24 1417.6,5.1 1394.4,24 1371.1,5.1 1347.9,24 1324.7,5.1 1301.4,24 1278.2,5.1 1254.9,24 1231.7,5.1 1208.5,24 1185.2,5.1 
		1162,24 1138.7,5.1 1115.5,24 1092.3,5.1 1069,24 1045.8,5.1 1022.5,24 999.3,5.1 976.1,24 952.8,5.1 929.6,24 906.3,5.1 883.1,24 
		859.9,5.1 836.6,24 813.4,5.1 790.1,24 766.9,5.1 743.6,24 720.4,5.1 697.2,24 673.9,5.1 650.7,24 627.4,5.1 604.2,24 581,5.1 
		557.7,24 534.5,5.1 511.2,24 488,5.1 464.8,24 441.5,5.1 418.3,24 395.1,5.1 371.8,24 348.6,5.1 325.3,24 302.1,5.1 278.9,24 
		255.6,5.1 232.4,24 209.1,5.1 185.9,24 162.7,5.1 139.4,24 116.2,5.1 92.9,24 69.7,5.1 46.5,24 23.2,5.1 0,24 0,-71 1929,-71 
		1929,9.8 	"/>
</g>
</svg>
