<?xml version="1.0" encoding="utf-8"?>
<!-- Generator: Adobe Illustrator 21.1.0, SVG Export Plug-In . SVG Version: 6.00 Build 0)  -->
<svg version="1.1" id="Calque_1" xmlns="http://www.w3.org/2000/svg" xmlns:xlink="http://www.w3.org/1999/xlink" x="0px" y="0px"
	 viewBox="0 0 1920 1080" style="enable-background:new 0 0 1920 1080;" xml:space="preserve">
<style type="text/css">
	.st0{fill:#FFFFFF;}
</style>
<g>
	<g>
		<polygon class="st0" points="1924.6,1074.3 1905.7,1059 1882.5,1077.9 1859.2,1059 1836,1077.9 1812.8,1059 1789.5,1077.9 
			1766.3,1059 1743,1077.9 1719.8,1059 1696.5,1077.9 1673.3,1059 1650,1077.9 1626.8,1059 1603.6,1077.9 1580.3,1059 
			1557.1,1077.9 1533.8,1059 1510.6,1077.9 1487.3,1059 1464.1,1077.9 1440.9,1059 1417.6,1077.9 1394.4,1059 1371.1,1077.9 
			1347.9,1059 1324.7,1077.9 1301.4,1059 1278.2,1077.9 1254.9,1059 1231.7,1077.9 1208.5,1059 1185.2,1077.9 1162,1059 
			1138.7,1077.9 1115.5,1059 1092.3,1077.9 1069,1059 1045.8,1077.9 1022.5,1059 999.3,1077.9 976.1,1059 952.8,1077.9 929.6,1059 
			906.3,1077.9 883.1,1059 859.9,1077.9 836.6,1059 813.4,1077.9 790.1,1059 766.9,1077.9 743.6,1059 720.4,1077.9 697.2,1059 
			673.9,1077.9 650.7,1059 627.4,1077.9 604.2,1059 581,1077.9 557.7,1059 534.5,1077.9 511.2,1059 488,1077.9 464.8,1059 
			441.5,1077.9 418.3,1059 395.1,1077.9 371.8,1059 348.6,1077.9 325.3,1059 302.1,1077.9 278.9,1059 255.6,1077.9 232.4,1059 
			209.1,1077.9 185.9,1059 162.7,1077.9 139.4,1059 116.2,1077.9 92.9,1059 69.7,1077.9 46.5,1059 23.2,1077.9 0,1059 0,1154 
			1929,1154 1929,1073.2 		"/>
	</g>
</g>
</svg>
