<?xml version="1.0" encoding="utf-8"?>
<!-- Generator: Adobe Illustrator 21.1.0, SVG Export Plug-In . SVG Version: 6.00 Build 0)  -->
<svg version="1.1" id="Calque_1" xmlns="http://www.w3.org/2000/svg" xmlns:xlink="http://www.w3.org/1999/xlink" x="0px" y="0px"
	 viewBox="0 0 1920 1080" style="enable-background:new 0 0 1920 1080;" xml:space="preserve">
<style type="text/css">
	.st0{fill:#FFFFFF;}
	.st1{fill:none;stroke:#0E0E0E;stroke-width:2;stroke-miterlimit:10;}
	.st2{fill:none;stroke:#C2D830;stroke-linecap:round;stroke-miterlimit:10;}
	.st3{fill:none;stroke:#C2D830;stroke-miterlimit:10;}
	.st4{fill:#F1F1F1;}
	.st5{fill:#383839;}
	.st6{fill:#C2D830;}
	.st7{fill:none;stroke:#7F7F7F;stroke-width:2;stroke-linecap:round;stroke-miterlimit:10;}
	.st8{fill:none;stroke:#7F7F7F;stroke-width:2;stroke-miterlimit:10;}
</style>
<g>
	<circle class="st0" cx="62" cy="24" r="204"/>
</g>
<circle class="st1" cx="144" cy="130" r="98"/>
<g>
	<path class="st2" d="M46.2,216.2"/>
	<path class="st2" d="M215.9,124.2c-2.7-7.8-6.3-15.5-10.9-22.9C171.7,47.6,101.2,30.9,47.4,64.2C-6.4,97.4-23,168,10.2,221.8
		c32.2,52.1,99.5,69.4,152.6,40.1"/>
	<path class="st3" d="M99.9,78.8"/>
</g>
<g>
	<circle class="st4" cx="89.5" cy="68.5" r="53.5"/>
</g>
<g>
	<circle class="st5" cx="62.5" cy="110.5" r="34.5"/>
</g>
<g>
	<circle class="st6" cx="83" cy="84" r="21"/>
</g>
<g>
	<path class="st7" d="M103.4,100.4"/>
	<path class="st7" d="M-78,166.4c1.5,8.2,4,16.3,7.4,24.2c25,58.1,92.3,85,150.4,60c58.1-25,85-92.3,60-150.4
		c-24.2-56.3-88.2-83.3-145-62.1"/>
	<path class="st8" d="M30,228.4"/>
</g>
</svg>
