<?xml version="1.0" encoding="utf-8"?>
<!-- Generator: Adobe Illustrator 23.0.1, SVG Export Plug-In . SVG Version: 6.00 Build 0)  -->
<svg version="1.1"
	 id="Calque_1" xmlns:cc="http://creativecommons.org/ns#" xmlns:dc="http://purl.org/dc/elements/1.1/" xmlns:inkscape="http://www.inkscape.org/namespaces/inkscape" xmlns:rdf="http://www.w3.org/1999/02/22-rdf-syntax-ns#" xmlns:sodipodi="http://sodipodi.sourceforge.net/DTD/sodipodi-0.dtd" xmlns:svg="http://www.w3.org/2000/svg"
	 xmlns="http://www.w3.org/2000/svg" xmlns:xlink="http://www.w3.org/1999/xlink" x="0px" y="0px" viewBox="0 0 60 82"
	 style="enable-background:new 0 0 60 82;" xml:space="preserve">
<g transform="translate(0,-952.36218)">
	<path d="M30,952.4c-12.2,0-22,9.8-22,22v12H6c-3.3,0-6,2.7-6,6v36c0,3.3,2.7,6,6,6h48c3.3,0,6-2.7,6-6v-36c0-3.3-2.7-6-6-6h-2v-12
		C52,962.2,42.2,952.4,30,952.4L30,952.4z M30,956.4c10,0,18,8,18,18v12H12v-12C12,964.4,20,956.4,30,956.4z M6,990.4h48
		c1.1,0,2,0.9,2,2v36c0,1.1-0.9,2-2,2H6c-1.1,0-2-0.9-2-2v-36C4,991.2,4.9,990.4,6,990.4L6,990.4z"/>
</g>
</svg>
