<?xml version="1.0" encoding="utf-8"?>
<!-- Generator: Adobe Illustrator 23.0.1, SVG Export Plug-In . SVG Version: 6.00 Build 0)  -->
<svg version="1.1" id="Calque_1" xmlns="http://www.w3.org/2000/svg" xmlns:xlink="http://www.w3.org/1999/xlink" x="0px" y="0px"
	 viewBox="0 0 55.1 52.4" style="enable-background:new 0 0 55.1 52.4;" xml:space="preserve">
<g>
	<g>
		<path d="M28.9,52.4c-9.9,0-19.2-5.8-23.6-14.9c-0.2-0.5,0-1.1,0.5-1.3c0.5-0.2,1.1,0,1.3,0.5c4.1,8.3,12.6,13.7,21.8,13.7
			c13.3,0,24.2-10.9,24.2-24.2S42.2,2,28.9,2C19.5,2,11.2,7.3,7.1,15.7c-0.2,0.5-0.8,0.7-1.3,0.5s-0.7-0.8-0.5-1.3
			C9.7,5.7,18.8,0,28.9,0c14.4,0,26.2,11.8,26.2,26.2S43.3,52.4,28.9,52.4z"/>
	</g>
</g>
<g>
	<path d="M21.3,34.4c-0.3,0-0.5-0.1-0.7-0.3c-0.4-0.4-0.4-1,0-1.4l6.7-6.6l-6.7-6.6c-0.4-0.4-0.4-1,0-1.4s1-0.4,1.4,0l7.4,7.3
		c0.2,0.2,0.3,0.4,0.3,0.7s-0.1,0.5-0.3,0.7L22,34.1C21.8,34.3,21.6,34.4,21.3,34.4z"/>
</g>
<g>
	<path d="M28.7,27.1H0c-0.6,0-1-0.4-1-1s0.4-1,1-1h28.7c0.6,0,1,0.4,1,1S29.3,27.1,28.7,27.1z"/>
</g>
</svg>
