<svg xmlns="http://www.w3.org/2000/svg" xmlns:xlink="http://www.w3.org/1999/xlink" version="1.1" x="0px" y="0px" viewBox="0 0 512 640" style="enable-background:new 0 0 512 512;" xml:space="preserve"><g><path d="M256,127.2c-37,0-67.2,30.1-67.2,67.2c0,37,30.1,67.2,67.2,67.2s67.2-30.1,67.2-67.2   C323.2,157.4,293,127.2,256,127.2z M256,243.6c-27.1,0-49.2-22.1-49.2-49.2s22.1-49.2,49.2-49.2s49.2,22.1,49.2,49.2   S283.1,243.6,256,243.6z"/><path d="M256,28.7c-97.6,0-176.9,79.4-176.9,176.9c0,83,124.5,228.6,162.7,271.2c3.6,4,8.8,6.2,14.2,6.2   c0,0,0,0,0,0c5.4,0,10.6-2.2,14.2-6.2c49-55.1,162.8-191.8,162.8-271.3C432.9,107.9,353.6,28.7,256,28.7z M256.7,464.8   c-0.2,0.2-0.4,0.2-0.7,0.2c0,0,0,0,0,0c-0.3,0-0.5,0.1-0.7-0.2C178.7,379.4,97.1,266.4,97.1,205.5c0-87.6,71.3-158.9,158.9-158.9   s158.9,71.2,158.9,158.9C414.9,280.9,293.8,423,256.7,464.8z"/></g><text x="0" y="527" fill="#000000" font-size="5px" font-weight="bold" font-family="'Helvetica Neue', Helvetica, Arial-Unicode, Arial, Sans-serif">Created by Gagana</text><text x="0" y="532" fill="#000000" font-size="5px" font-weight="bold" font-family="'Helvetica Neue', Helvetica, Arial-Unicode, Arial, Sans-serif">from the Noun Project</text></svg>