<?xml version="1.0" encoding="utf-8"?>
<!-- Generator: Adobe Illustrator 21.1.0, SVG Export Plug-In . SVG Version: 6.00 Build 0)  -->
<svg version="1.1" id="Calque_1" xmlns="http://www.w3.org/2000/svg" xmlns:xlink="http://www.w3.org/1999/xlink" x="0px" y="0px"
	 viewBox="0 0 500 500" style="enable-background:new 0 0 500 500;" xml:space="preserve">
<style type="text/css">
	.st0{fill:none;stroke:#C2D830;stroke-width:5;stroke-miterlimit:10;}
	.st1{display:none;fill:#383839;}
	.st2{fill:#FFFFFF;}
	.st3{fill:#383839;}
</style>
<circle class="st0" cx="250" cy="250" r="244"/>
<path class="st1" d="M-200.5,352c-56,0-101.5-45.5-101.5-101.5c0-56,45.5-101.5,101.5-101.5S-99,194.5-99,250.5
	C-99,306.5-144.5,352-200.5,352z M-200.5,152c-54.3,0-98.5,44.2-98.5,98.5c0,54.3,44.2,98.5,98.5,98.5s98.5-44.2,98.5-98.5
	C-102,196.2-146.2,152-200.5,152z"/>
<g>
	<g>
		<line class="st2" x1="196.3" y1="423.3" x2="303.7" y2="423.3"/>
		<rect x="196.3" y="421.5" class="st3" width="107.4" height="3.5"/>
	</g>
	<g>
		<line class="st2" x1="250" y1="425" x2="250" y2="194"/>
		<rect x="248.4" y="194" class="st3" width="3.2" height="231"/>
	</g>
	<path class="st3" d="M311.7,194H188.3L222,75h56.1L311.7,194z M192.7,190.5h114.7l-31.7-112h-51.3L192.7,190.5z"/>
</g>
</svg>
