<?xml version="1.0" encoding="utf-8"?>
<!-- Generator: Adobe Illustrator 21.1.0, SVG Export Plug-In . SVG Version: 6.00 Build 0)  -->
<svg version="1.1" id="Calque_1" xmlns="http://www.w3.org/2000/svg" xmlns:xlink="http://www.w3.org/1999/xlink" x="0px" y="0px"
	 viewBox="0 0 500 500" style="enable-background:new 0 0 500 500;" xml:space="preserve">
<style type="text/css">
	.st0{fill:none;stroke:#C2D830;stroke-width:5;stroke-miterlimit:10;}
	.st1{fill:#383839;}
</style>
<circle class="st0" cx="250" cy="250" r="244"/>
<g>
	<g>
		<polygon class="st1" points="265.9,180.4 265.5,180 265.3,180 264.6,183.4 264.2,183.1 417.3,331.8 395.5,331.8 252.2,192.7 
			250,194.9 393.7,334.5 394.2,335 425,335 		"/>
		<g>
			<polygon class="st1" points="104.5,331.8 82.7,331.8 235.8,183.1 235.4,183.4 234.7,180 234.5,180 75,335 105.8,335 250,194.9 
				247.8,192.7 			"/>
			<g>
				<polygon class="st1" points="250,194.9 252.2,192.7 250,190.5 247.8,192.7 				"/>
			</g>
		</g>
	</g>
	<g>
		<polygon class="st1" points="147.2,294 143.9,297.1 356.1,297.1 352.8,294 		"/>
		<polygon class="st1" points="168.9,273.1 165.7,276.3 334.3,276.3 331.1,273.1 		"/>
	</g>
	<g>
		<polygon class="st1" points="258.9,273.1 241.1,273.1 241.1,203.2 238,206.3 238,276.3 262,276.3 262,206.3 258.9,203.2 		"/>
	</g>
	<g>
		<circle class="st1" cx="144.1" cy="283" r="2.6"/>
		<circle class="st1" cx="355.9" cy="283" r="2.6"/>
	</g>
	<g>
		<path class="st1" d="M264.4,183.4h4.6L250,165l-19,18.4h4.6c0.8-0.7,1.5-1.5,2.3-2.2c0.3-0.3,0.6-0.6,0.9-0.9h0l7.8-7.5
			c0.4-0.4,1-1,1.4-1.3l2.1-2l8.4,8.1"/>
	</g>
	<circle class="st1" cx="250" cy="182.9" r="2.6"/>
</g>
</svg>
