<?xml version="1.0" encoding="utf-8"?>
<!-- Generator: Adobe Illustrator 21.1.0, SVG Export Plug-In . SVG Version: 6.00 Build 0)  -->
<svg version="1.1" id="Calque_1" xmlns="http://www.w3.org/2000/svg" xmlns:xlink="http://www.w3.org/1999/xlink" x="0px" y="0px"
	 viewBox="0 0 500 500" style="enable-background:new 0 0 500 500;" xml:space="preserve">
<style type="text/css">
	.st0{fill:none;stroke:#C2D830;stroke-width:5;stroke-miterlimit:10;}
	.st1{fill:#FFFFFF;}
	.st2{fill:#383839;}
</style>
<circle class="st0" cx="250" cy="250" r="244"/>
<g>
	<g>
		<line class="st1" x1="81" y1="384" x2="151" y2="384"/>
		<path class="st2" d="M149.5,385.5h-67c-0.8,0-1.5-0.7-1.5-1.5l0,0c0-0.8,0.7-1.5,1.5-1.5h67c0.8,0,1.5,0.7,1.5,1.5l0,0
			C151,384.8,150.3,385.5,149.5,385.5z"/>
	</g>
	<g>
		<line class="st1" x1="148" y1="317" x2="218" y2="317"/>
		<path class="st2" d="M216.5,318.5h-67c-0.8,0-1.5-0.7-1.5-1.5l0,0c0-0.8,0.7-1.5,1.5-1.5h67c0.8,0,1.5,0.7,1.5,1.5l0,0
			C218,317.8,217.3,318.5,216.5,318.5z"/>
	</g>
	<g>
		<line class="st1" x1="215" y1="250" x2="285" y2="250"/>
		<path class="st2" d="M283.5,251.5h-67c-0.8,0-1.5-0.7-1.5-1.5l0,0c0-0.8,0.7-1.5,1.5-1.5h67c0.8,0,1.5,0.7,1.5,1.5l0,0
			C285,250.8,284.3,251.5,283.5,251.5z"/>
	</g>
	<g>
		<line class="st1" x1="282" y1="183" x2="352" y2="183"/>
		<path class="st2" d="M350.5,184.5h-67c-0.8,0-1.5-0.7-1.5-1.5l0,0c0-0.8,0.7-1.5,1.5-1.5h67c0.8,0,1.5,0.7,1.5,1.5l0,0
			C352,183.8,351.3,184.5,350.5,184.5z"/>
	</g>
	<g>
		<line class="st1" x1="349" y1="116" x2="419" y2="116"/>
		<path class="st2" d="M417.5,117.5h-67c-0.8,0-1.5-0.7-1.5-1.5l0,0c0-0.8,0.7-1.5,1.5-1.5h67c0.8,0,1.5,0.7,1.5,1.5l0,0
			C419,116.8,418.3,117.5,417.5,117.5z"/>
	</g>
	<g>
		<line class="st1" x1="216.5" y1="318.5" x2="216.5" y2="248.5"/>
		<path class="st2" d="M216.5,318.5L216.5,318.5c-0.8,0-1.5-0.7-1.5-1.5v-67c0-0.8,0.7-1.5,1.5-1.5l0,0c0.8,0,1.5,0.7,1.5,1.5v67
			C218,317.8,217.3,318.5,216.5,318.5z"/>
	</g>
	<g>
		<line class="st1" x1="350.5" y1="184.5" x2="350.5" y2="114.5"/>
		<path class="st2" d="M350.5,184.5L350.5,184.5c-0.8,0-1.5-0.7-1.5-1.5v-67c0-0.8,0.7-1.5,1.5-1.5l0,0c0.8,0,1.5,0.7,1.5,1.5v67
			C352,183.8,351.3,184.5,350.5,184.5z"/>
	</g>
	<g>
		<line class="st1" x1="283.5" y1="251.5" x2="283.5" y2="181.5"/>
		<path class="st2" d="M283.5,251.5L283.5,251.5c-0.8,0-1.5-0.7-1.5-1.5v-67c0-0.8,0.7-1.5,1.5-1.5l0,0c0.8,0,1.5,0.7,1.5,1.5v67
			C285,250.8,284.3,251.5,283.5,251.5z"/>
	</g>
	<g>
		<line class="st1" x1="149.5" y1="385.5" x2="149.5" y2="315.5"/>
		<path class="st2" d="M149.5,385.5L149.5,385.5c-0.8,0-1.5-0.7-1.5-1.5v-67c0-0.8,0.7-1.5,1.5-1.5l0,0c0.8,0,1.5,0.7,1.5,1.5v67
			C151,384.8,150.3,385.5,149.5,385.5z"/>
	</g>
</g>
</svg>
