<?xml version="1.0" encoding="utf-8"?>
<!-- Generator: Adobe Illustrator 21.1.0, SVG Export Plug-In . SVG Version: 6.00 Build 0)  -->
<svg version="1.1" id="Calque_1" xmlns="http://www.w3.org/2000/svg" xmlns:xlink="http://www.w3.org/1999/xlink" x="0px" y="0px"
	 viewBox="0 0 500 500" style="enable-background:new 0 0 500 500;" xml:space="preserve">
<style type="text/css">
	.st0{fill:none;stroke:#C2D830;stroke-width:5;stroke-miterlimit:10;}
	.st1{display:none;fill:#383839;}
	.st2{fill:#383839;}
</style>
<circle class="st0" cx="250" cy="250" r="244"/>
<path class="st1" d="M-200.5,352c-56,0-101.5-45.5-101.5-101.5c0-56,45.5-101.5,101.5-101.5S-99,194.5-99,250.5
	C-99,306.5-144.5,352-200.5,352z M-200.5,152c-54.3,0-98.5,44.2-98.5,98.5c0,54.3,44.2,98.5,98.5,98.5s98.5-44.2,98.5-98.5
	C-102,196.2-146.2,152-200.5,152z"/>
<g>
	<g>
		<path class="st2" d="M130.2,255.9H75v3.4h55.2c0-0.6,0-1.1,0-1.7S130.2,256.5,130.2,255.9z"/>
		<path class="st2" d="M240.5,369.7v55.2h3.4v-55.2c-0.6,0-1.1,0-1.7,0C241.6,369.7,241.1,369.7,240.5,369.7z"/>
		<path class="st2" d="M161.8,335.6l-39.1,39.1l2.4,2.4l39.1-39.1C163.4,337.3,162.6,336.5,161.8,335.6z"/>
		<path class="st2" d="M161.8,179.7l-2.4-2.4c-19.8,20.4-32.2,48.1-32.6,78.7h3.4C130.6,226.3,142.6,199.5,161.8,179.7z"/>
		<path class="st2" d="M130.2,259.4h-3.4c0.4,30.5,12.8,58.2,32.6,78.7l2.4-2.4C142.6,315.8,130.6,289,130.2,259.4z"/>
		<path class="st2" d="M243.9,369.7v3.4c30.5-0.4,58.2-12.8,78.7-32.6l-2.4-2.4C300.4,357.2,273.5,369.2,243.9,369.7z"/>
		<path class="st2" d="M164.2,338l-2.4,2.4c20.4,19.8,48.1,32.2,78.7,32.6v-3.4C210.9,369.2,184,357.2,164.2,338z"/>
	</g>
	<g>
		<g>
			<polygon points="356.3,144.5 356.3,143.9 355.7,143.9 355.7,142.1 260.2,237.6 260.2,241 260.9,241.7 358.1,144.5 			"/>
			<polygon points="356.3,141.5 355.7,142.1 356.3,142.1 			"/>
			<polygon points="358.1,144.5 358.7,143.9 358.1,143.9 			"/>
			<polygon points="358.1,139.6 358.1,142.1 360.5,142.1 380.3,122.3 377.9,119.9 			"/>
			<polygon points="358.1,139.6 358.1,114.1 356.3,114.1 356.3,141.5 			"/>
			<polygon points="358.7,143.9 386.1,143.9 386.1,142.1 360.5,142.1 			"/>
			<rect x="356.3" y="142.1" width="1.8" height="1.8"/>
			<polygon points="258.5,239.3 260.2,237.6 260.2,106.5 258.9,107.8 258.5,107.4 258.1,107.8 256.8,106.5 256.8,237.6 			"/>
			<polygon points="258.5,104.8 260.2,103.1 260.2,75.1 256.8,75.1 256.8,103.1 			"/>
			<polygon points="256.8,105.7 256.8,106.5 257.2,106.1 			"/>
			<polygon points="260.2,106.5 260.2,105.7 259.8,106.1 			"/>
			<polygon points="258.5,239.3 256.8,241 256.8,242.4 258.5,244.1 260.2,242.4 260.2,241 			"/>
			<polygon points="260.2,106.5 260.2,106.5 260.2,106.5 			"/>
			<polygon points="256.8,103.1 238.7,85.1 237.4,86.4 256.8,105.7 			"/>
			<polygon points="256.8,106.5 256.8,106.5 256.8,106.5 			"/>
			<polygon points="260.2,105.7 279.5,86.4 278.2,85.1 260.2,103.1 			"/>
			<rect x="256.6" y="102.9" transform="matrix(0.7071 -0.7071 0.7071 0.7071 1.6082 213.4626)" width="3.7" height="3.7"/>
			<g>
				<polygon points="158.8,139.6 139,119.9 136.6,122.3 156.4,142.1 158.8,142.1 				"/>
				<polygon points="161.2,142.1 160.7,141.5 160.7,142.1 				"/>
				<polygon points="158.2,143.9 158.8,144.5 158.8,143.9 				"/>
				<polygon points="256.8,237.6 161.2,142.1 161.2,143.9 160.7,143.9 160.7,144.5 158.8,144.5 256.1,241.7 256.8,241 				"/>
				<polygon points="156.4,142.1 130.9,142.1 130.9,143.9 158.2,143.9 				"/>
				<polygon points="160.7,141.5 160.7,114.1 158.8,114.1 158.8,139.6 				"/>
				<rect x="158.8" y="142.1" width="1.8" height="1.8"/>
				<rect x="157.6" y="138.8" transform="matrix(0.7071 -0.7071 0.7071 0.7071 -54.1454 154.4378)" width="3.4" height="7.5"/>
			</g>
			<g>
				<polygon points="357,343 376.8,362.8 379.2,360.4 359.4,340.6 357,340.6 				"/>
				<polygon points="354.6,340.6 355.1,341.2 355.1,340.6 				"/>
				<polygon points="357.6,338.8 357,338.2 357,338.8 				"/>
				<polygon points="258.4,244.1 353.9,339.6 353.9,337.8 354.5,337.8 354.5,337.2 357.2,338 259.9,240.7 258.4,240.6 				"/>
				<polygon points="359.4,340.6 384.9,340.6 384.9,338.8 357.6,338.8 				"/>
				<polygon points="355.1,341.2 355.1,368.5 357,368.5 357,343 				"/>
				<rect x="355.1" y="338.8" width="1.8" height="1.8"/>
				<rect x="354.7" y="336.3" transform="matrix(0.7071 -0.7071 0.7071 0.7071 -136.0612 351.6488)" width="3.4" height="7.5"/>
			</g>
			<g>
				<polygon points="397,244.1 425,244.1 425,240.7 397,240.7 395.3,242.4 				"/>
				<polygon points="393.6,244.1 394.4,244.1 394,243.7 				"/>
				<polygon points="394.4,240.7 393.6,240.7 394,241.1 				"/>
				<polygon points="258.5,244.1 393.6,244.1 392.3,242.8 392.7,242.4 392.3,242 393.6,240.7 256.1,240.7 256.1,241.7 				"/>
				<polygon points="397,240.7 415.1,222.7 413.8,221.4 394.4,240.7 				"/>
				<polygon points="394.4,244.1 413.8,263.5 415.1,262.2 397,244.1 				"/>
				<rect x="393.1" y="241.5" transform="matrix(0.7071 -0.7071 0.7071 0.7071 -56.0051 349.6141)" width="1.8" height="1.8"/>
				<rect x="390.8" y="240.7" width="7.5" height="3.4"/>
			</g>
			<rect x="255.3" y="236.5" transform="matrix(0.7071 -0.7071 0.7071 0.7071 -94.6016 252.1077)" width="3.4" height="7.5"/>
		</g>
		<rect x="256.2" y="238.5" transform="matrix(0.7071 -0.7071 0.7071 0.7071 -93.7486 254.167)" width="7.5" height="3.4"/>
		<rect x="354.3" y="140.4" transform="matrix(0.7071 -0.7071 0.7071 0.7071 4.3721 294.81)" width="7.5" height="3.4"/>
		<rect x="256.8" y="98.2" width="3.4" height="7.5"/>
		<rect x="256.8" y="101.4" width="3.4" height="7.5"/>
	</g>
</g>
</svg>
