<?xml version="1.0" encoding="utf-8"?>
<!-- Generator: Adobe Illustrator 21.1.0, SVG Export Plug-In . SVG Version: 6.00 Build 0)  -->
<svg version="1.1" id="Calque_1" xmlns="http://www.w3.org/2000/svg" xmlns:xlink="http://www.w3.org/1999/xlink" x="0px" y="0px"
	 viewBox="0 0 500 500" style="enable-background:new 0 0 500 500;" xml:space="preserve">
<style type="text/css">
	.st0{clip-path:url(#SVGID_2_);}
	.st1{fill:none;stroke:#383839;stroke-width:4;stroke-miterlimit:10;}
	.st2{fill:none;stroke:#C2D830;stroke-width:5;stroke-miterlimit:10;}
</style>
<g>
	<defs>
		<circle id="SVGID_1_" cx="250" cy="250" r="244"/>
	</defs>
	<clipPath id="SVGID_2_">
		<use xlink:href="#SVGID_1_"  style="overflow:visible;"/>
	</clipPath>
	<g class="st0">
		<rect x="0.5" y="0.5" class="st1" width="67.5" height="71.4"/>
		<rect x="67" y="0.5" class="st1" width="199" height="71.4"/>
		<rect x="266" y="0.5" class="st1" width="234.5" height="71.4"/>
		<rect x="0.5" y="71.9" class="st1" width="186.5" height="71.4"/>
		<rect x="187.4" y="71.9" class="st1" width="234" height="71.4"/>
		<rect x="421" y="71.9" class="st1" width="79.5" height="71.4"/>
		<rect x="0.5" y="143.4" class="st1" width="132.5" height="71.4"/>
		<rect x="133.5" y="143.4" class="st1" width="234" height="71.4"/>
		<rect x="367" y="143.4" class="st1" width="133.5" height="71.4"/>
		<rect x="0.5" y="214.8" class="st1" width="67.5" height="71.4"/>
		<rect x="67.9" y="214.8" class="st1" width="234" height="71.4"/>
		<rect x="302" y="214.8" class="st1" width="198.5" height="71.4"/>
		<rect x="0.5" y="286.2" class="st1" width="221.5" height="71.4"/>
		<rect x="222" y="286.2" class="st1" width="234" height="71.4"/>
		<rect x="456" y="286.2" class="st1" width="44.5" height="71.4"/>
		<rect x="0.5" y="357.6" class="st1" width="166.7" height="71.4"/>
		<rect x="167.6" y="357.8" class="st1" width="234" height="71.2"/>
		<rect x="402" y="357.6" class="st1" width="98.5" height="71.4"/>
		<rect x="0.5" y="429.1" class="st1" width="221.5" height="71.4"/>
		<rect x="222" y="429.1" class="st1" width="230" height="71.4"/>
		<rect x="452" y="429.1" class="st1" width="48.5" height="71.4"/>
	</g>
</g>
<circle class="st2" cx="250" cy="250" r="244"/>
</svg>
