<?xml version="1.0" encoding="utf-8"?>
<!-- Generator: Adobe Illustrator 21.1.0, SVG Export Plug-In . SVG Version: 6.00 Build 0)  -->
<svg version="1.1" id="Calque_1" xmlns="http://www.w3.org/2000/svg" xmlns:xlink="http://www.w3.org/1999/xlink" x="0px" y="0px"
	 viewBox="0 0 500 500" style="enable-background:new 0 0 500 500;" xml:space="preserve">
<style type="text/css">
	.st0{fill:none;stroke:#C2D830;stroke-width:5;stroke-miterlimit:10;}
	.st1{fill:#383839;stroke:#383839;stroke-width:3;stroke-miterlimit:10;}
	.st2{fill:none;stroke:#383839;stroke-width:3;stroke-miterlimit:10;}
</style>
<circle class="st0" cx="250" cy="250" r="244"/>
<g>
	<g>
		<line class="st1" x1="250" y1="249.9" x2="250" y2="124.9"/>
		<path class="st2" d="M249.1,75.2l-151,43.1c-3.8,1.1-3,6.6,0.9,6.6H401c3.9,0,4.7-5.5,0.9-6.6l-151-43.1
			C250.3,75,249.7,75,249.1,75.2z"/>
	</g>
	<g>
		<line class="st1" x1="250" y1="424.9" x2="250" y2="274.9"/>
		<line class="st2" x1="150" y1="274.9" x2="350" y2="274.9"/>
	</g>
</g>
<g>
	<g>
		<line class="st2" x1="128.8" y1="336.5" x2="203.8" y2="336.5"/>
		<line class="st2" x1="111.1" y1="424.9" x2="130.5" y2="336.7"/>
		<line class="st2" x1="221.9" y1="424.7" x2="202.5" y2="336.5"/>
		<line class="st2" x1="130.9" y1="338.2" x2="111.5" y2="250"/>
	</g>
	<g>
		<line class="st2" x1="371.2" y1="336.5" x2="296.2" y2="336.5"/>
		<line class="st2" x1="388.9" y1="424.9" x2="369.5" y2="336.7"/>
		<line class="st2" x1="278.1" y1="424.7" x2="297.5" y2="336.5"/>
		<line class="st2" x1="369.1" y1="338.2" x2="388.5" y2="250"/>
	</g>
</g>
</svg>
