<?xml version="1.0" encoding="utf-8"?>
<!-- Generator: Adobe Illustrator 21.1.0, SVG Export Plug-In . SVG Version: 6.00 Build 0)  -->
<svg version="1.1" id="Calque_1" xmlns="http://www.w3.org/2000/svg" xmlns:xlink="http://www.w3.org/1999/xlink" x="0px" y="0px"
	 viewBox="0 0 500 500" style="enable-background:new 0 0 500 500;" xml:space="preserve">
<style type="text/css">
	.st0{fill:none;stroke:#C2D830;stroke-width:5;stroke-miterlimit:10;}
	.st1{fill:none;stroke:#383839;stroke-width:3;stroke-miterlimit:10;}
	.st2{fill:#383839;}
	.st3{fill:none;}
	.st4{fill:#FFFFFF;}
</style>
<circle class="st0" cx="250" cy="250" r="244"/>
<rect x="150" y="77.5" class="st1" width="200" height="47.5"/>
<rect x="150" y="375" class="st1" width="200" height="50"/>
<g>
	<path class="st2" d="M344.8,127L200.2,373l-45,0l144.5-246L344.8,127 M350,124l-52,0L150,376l52,0L350,124L350,124z"/>
</g>
<g>
	<polygon class="st3" points="198.5,125.5 151.5,125.5 151.5,372.5 152.1,372.5 198.5,293.4 	"/>
	<polygon class="st3" points="248.5,372.5 248.5,296.8 204,372.5 	"/>
	<polygon class="st3" points="248.5,125.5 201.5,125.5 201.5,288.3 248.5,208.3 	"/>
	<polygon class="st3" points="251.5,372.5 298.5,372.5 298.5,211.7 251.5,291.7 	"/>
	<polygon class="st3" points="251.5,125.5 251.5,203.2 297.2,125.5 	"/>
	<polygon class="st3" points="301.5,372.5 348.5,372.5 348.5,126.6 301.5,206.6 	"/>
	<polygon class="st2" points="151.5,372.5 151.5,125.5 198.5,125.5 198.5,122.5 148.5,122.5 148.5,375.5 150.3,375.5 152.1,372.5 	
		"/>
	<rect x="201.5" y="122.5" class="st2" width="47" height="3"/>
	<polygon class="st2" points="204,372.5 202.3,375.5 248.5,375.5 248.5,372.5 	"/>
	<polygon class="st2" points="198.5,293.4 201.5,288.3 201.5,125.5 201.5,122.5 198.5,122.5 198.5,125.5 	"/>
	<rect x="251.5" y="372.5" class="st2" width="47" height="3"/>
	<polygon class="st2" points="297.2,125.5 298,124 298.5,124 298.5,122.5 251.5,122.5 251.5,125.5 	"/>
	<polygon class="st2" points="248.5,208.3 251.5,203.2 251.5,125.5 251.5,122.5 248.5,122.5 248.5,125.5 	"/>
	<polygon class="st2" points="251.5,291.7 248.5,296.8 248.5,372.5 248.5,375.5 251.5,375.5 251.5,372.5 	"/>
	<polygon class="st2" points="301.5,122.5 301.5,124 350,124 348.5,126.6 348.5,372.5 301.5,372.5 301.5,375.5 351.5,375.5 
		351.5,122.5 	"/>
	<polygon class="st2" points="301.5,206.6 298.5,211.7 298.5,372.5 298.5,375.5 301.5,375.5 301.5,372.5 	"/>
	<rect x="298.5" y="122.5" class="st2" width="3" height="1.5"/>
	<polygon class="st4" points="198.5,293.4 152.1,372.5 152.1,372.5 198.5,293.4 	"/>
	<polygon class="st4" points="248.5,208.3 248.5,208.3 201.5,288.3 201.5,288.3 	"/>
	<polygon class="st4" points="150.3,375.5 150,376 150.3,375.5 	"/>
	<polygon class="st4" points="297.2,125.5 297.2,125.5 251.5,203.2 251.5,203.2 	"/>
	<polygon class="st4" points="152.1,372.5 152.1,372.5 150.3,375.5 150.3,375.5 	"/>
	<polygon class="st4" points="201.5,288.3 201.5,288.3 198.5,293.4 198.5,293.4 	"/>
	<line class="st4" x1="201.5" y1="294.3" x2="198.5" y2="299.4"/>
	<polygon class="st4" points="251.5,203.2 251.5,203.2 248.5,208.3 248.5,208.3 	"/>
	<line class="st4" x1="248.5" y1="290.9" x2="251.5" y2="285.7"/>
	<line class="st4" x1="251.5" y1="209.1" x2="248.5" y2="214.3"/>
	<polygon class="st4" points="350,124 301.5,124 301.5,124 	"/>
	<rect x="298.5" y="124" class="st4" width="3" height="0"/>
	<polygon class="st2" points="251.5,285.7 251.5,291.7 298.5,211.7 298.5,205.7 	"/>
	<polygon class="st2" points="298.5,129.1 298.5,125.5 297.2,125.5 251.5,203.2 251.5,209.1 	"/>
	<polygon class="st2" points="201.5,370.9 201.5,372.5 204,372.5 248.5,296.8 248.5,290.9 	"/>
	<polygon class="st2" points="301.5,125.5 301.5,127 344.8,127 301.5,200.6 301.5,206.6 348.5,126.6 348.5,125.5 	"/>
	<polygon class="st2" points="198.5,299.4 198.5,293.4 152.1,372.5 155.5,372.5 	"/>
	<polygon class="st2" points="248.5,214.3 248.5,208.3 201.5,288.3 201.5,294.3 	"/>
	<polygon class="st2" points="155.2,373 155.5,372.5 152.1,372.5 150.3,375.5 198.5,375.5 198.5,373 	"/>
	<polygon class="st2" points="201.5,372.5 201.5,375.5 202.3,375.5 204,372.5 	"/>
	<polygon class="st2" points="200.2,373 198.5,373 198.5,375.5 201.5,375.5 201.5,372.5 201.5,370.9 	"/>
	<polygon class="st2" points="201.5,288.3 198.5,293.4 198.5,299.4 201.5,294.3 	"/>
	<polygon class="st2" points="248.5,290.9 248.5,296.8 251.5,291.7 251.5,285.7 	"/>
	<polygon class="st2" points="251.5,209.1 251.5,203.2 248.5,208.3 248.5,214.3 	"/>
	<polygon class="st2" points="301.5,125.5 348.5,125.5 348.5,126.6 350,124 301.5,124 	"/>
	<polygon class="st2" points="298.5,129.1 299.8,127 301.5,127 301.5,125.5 301.5,124 298.5,124 298.5,125.5 	"/>
	<polygon class="st2" points="298.5,205.7 298.5,211.7 301.5,206.6 301.5,200.6 	"/>
</g>
<path class="st1" d="M144,163L144,163c-2.8,0-5-2.3-5-5v-29c0-2.8,2.3-5,5-5l0,0c2.8,0,5,2.3,5,5v29C149,160.8,146.8,163,144,163z"
	/>
<path class="st1" d="M144.5,376.5L144.5,376.5c-2.8,0-5-2.3-5-5v-29c0-2.8,2.3-5,5-5l0,0c2.8,0,5,2.3,5,5v29
	C149.5,374.3,147.3,376.5,144.5,376.5z"/>
</svg>
