<?xml version="1.0" encoding="utf-8"?>
<!-- Generator: Adobe Illustrator 21.1.0, SVG Export Plug-In . SVG Version: 6.00 Build 0)  -->
<svg version="1.1" id="Calque_1" xmlns="http://www.w3.org/2000/svg" xmlns:xlink="http://www.w3.org/1999/xlink" x="0px" y="0px"
	 viewBox="0 0 500 500" style="enable-background:new 0 0 500 500;" xml:space="preserve">
<style type="text/css">
	.st0{fill:none;stroke:#C2D830;stroke-width:9;stroke-miterlimit:10;}
	.st1{fill:#C2D830;}
</style>
<ellipse class="st0" cx="250" cy="250" rx="195" ry="195.5"/>
<g>
	<path class="st1" d="M350.3,154.8v190.4h-13.5v-47.4c-7.9,16.1-19.7,28.8-35.5,38.1c-15.8,9.3-32.7,14-50.8,14
		c-27.6,0-51.3-9.8-71.1-29.4c-19.7-19.6-29.6-43.1-29.6-70.5c0-27.4,9.9-50.8,29.6-70.5c19.7-19.6,43.4-29.4,71.1-29.4
		c18,0,35.3,4.8,51.8,14.4c16.5,9.6,28,22.3,34.5,38.1v-47.8H350.3z M163.3,250.4c0,23.7,8.7,44.2,26,61.6
		c17.3,17.3,37.9,26,61.8,26c23.8,0,44.2-8.7,61.1-26c16.9-17.3,25.4-37.9,25.4-61.8c0-23.8-8.5-44.5-25.6-62
		c-17.1-17.5-37.4-26.2-61.1-26.2c-23.7,0-44.2,8.8-61.6,26.4C171.9,206.1,163.3,226.7,163.3,250.4z"/>
</g>
</svg>
