<?xml version="1.0" encoding="utf-8"?>
<!-- Generator: Adobe Illustrator 21.1.0, SVG Export Plug-In . SVG Version: 6.00 Build 0)  -->
<svg version="1.1" id="Calque_1" xmlns="http://www.w3.org/2000/svg" xmlns:xlink="http://www.w3.org/1999/xlink" x="0px" y="0px"
	 viewBox="0 0 500 500" style="enable-background:new 0 0 500 500;" xml:space="preserve">
<style type="text/css">
	.st0{fill:#C2D830;}
	.st1{fill:#C2D830;stroke:#C2D830;stroke-width:6;stroke-miterlimit:10;}
</style>
<g>
	<g>
		<path class="st0" d="M250,112.6c30.6,0,55.6,24.9,55.6,55.6s-24.9,55.6-55.6,55.6s-55.6-24.9-55.6-55.6S219.4,112.6,250,112.6
			 M250,103.6c-35.7,0-64.6,28.9-64.6,64.6s28.9,64.6,64.6,64.6c35.7,0,64.6-28.9,64.6-64.6S285.7,103.6,250,103.6L250,103.6z"/>
	</g>
	<g>
		<path class="st1" d="M102.4,254.9c-13-24.1-20-51.3-20-79.5c0-44.8,17.4-86.9,49.1-118.5C163.1,25.2,205.2,7.8,250,7.8
			s86.9,17.4,118.5,49.1c31.7,31.7,49.1,73.7,49.1,118.5c0,28.2-6.9,55.4-20,79.5c0.9,2.4,0.9,5.3-0.7,7.9l-7.4,12.2
			c20.1-28.1,31.9-62.4,31.9-99.6C421.4,80.7,344.6,4,250,4S78.6,80.7,78.6,175.4c0,37.1,11.8,71.5,31.9,99.6l-7.4-12.2
			C101.5,260.2,101.4,257.3,102.4,254.9z"/>
		<path class="st1" d="M373.1,294.5L254.4,489.7c-1,1.6-2.6,2.5-4.4,2.5s-3.5-0.9-4.4-2.5L126.9,294.5c-5.9-6.1-11.4-12.7-16.3-19.6
			l131.8,216.7c1.7,2.9,4.7,4.3,7.6,4.3s5.9-1.4,7.6-4.3L389.5,275C384.5,281.9,379.1,288.4,373.1,294.5z"/>
		<path class="st1" d="M113.8,273.1c-4.2-5.8-8-11.9-11.4-18.2c-0.9,2.4-0.9,5.3,0.7,7.9l7.4,12.2c5,6.9,10.4,13.5,16.3,19.6
			L113.8,273.1z"/>
		<path class="st1" d="M397.6,254.9c-3.4,6.3-7.2,12.4-11.4,18.2l-13.1,21.5c5.9-6.1,11.4-12.7,16.3-19.6l7.4-12.2
			C398.5,260.2,398.6,257.3,397.6,254.9z"/>
	</g>
</g>
</svg>
